<?xml version="1.0" encoding="UTF-8" standalone="no"?>
<!-- Created with Inkscape (http://www.inkscape.org/) -->

<svg
   width="128"
   height="128"
   viewBox="0 0 33.866666 33.866668"
   version="1.1"
   id="svg5"
   inkscape:version="1.1.2 (0a00cf5339, 2022-02-04)"
   sodipodi:docname="state-viz-icon.svg"
   inkscape:export-filename="/home/steciuk/Coding/state-viz/extension/src/assets/icons/enabled-512.png"
   inkscape:export-xdpi="384"
   inkscape:export-ydpi="384"
   xmlns:inkscape="http://www.inkscape.org/namespaces/inkscape"
   xmlns:sodipodi="http://sodipodi.sourceforge.net/DTD/sodipodi-0.dtd"
   xmlns="http://www.w3.org/2000/svg"
   xmlns:svg="http://www.w3.org/2000/svg">
  <sodipodi:namedview
     id="namedview7"
     pagecolor="#ffffff"
     bordercolor="#666666"
     borderopacity="1.0"
     inkscape:pageshadow="2"
     inkscape:pageopacity="0.0"
     inkscape:pagecheckerboard="0"
     inkscape:document-units="px"
     showgrid="true"
     units="px"
     width="128px"
     inkscape:zoom="5.9970445"
     inkscape:cx="45.439049"
     inkscape:cy="61.863806"
     inkscape:window-width="1920"
     inkscape:window-height="1014"
     inkscape:window-x="0"
     inkscape:window-y="394"
     inkscape:window-maximized="1"
     inkscape:current-layer="g33">
    <inkscape:grid
       type="xygrid"
       id="grid1812" />
  </sodipodi:namedview>
  <defs
     id="defs2" />
  <g
     inkscape:label="Layer 1"
     inkscape:groupmode="layer"
     id="layer1">
    <g
       id="g33"
       transform="matrix(0.51570702,0,0,0.58839386,0.43586593,-1.8870928)">
      <path
         d="m 63.87,45.64 a 4.12,4.12 0 0 0 -4,-4.25 h -8.65 c 0,0.14 -0.06,0.28 -0.1,0.42 a 6,6 0 0 1 -1,2.06 8,8 0 0 1 -4.31,2.49 41.38,41.38 0 0 1 -9.56,1.42 5.64,5.64 0 0 1 -4.22,2 v 0 A 5.73,5.73 0 0 1 27.31,47.1 42,42 0 0 1 13.95,42.24 l -0.8,-0.45 -0.6,-0.35 V 41.37 H 4.11 a 4.12,4.12 0 0 0 -4,4.25 1.09,1.09 0 0 0 0,0.18 1.93,1.93 0 0 0 0,0.24 c 0.02,4.28 11.95,12.79 31.89,12.79 19.94,0 31.87,-8.49 31.87,-12.77 a 1.93,1.93 0 0 0 0,-0.24 1.09,1.09 0 0 0 0,-0.18 z"
         id="path9"
         style="fill:#595bff;fill-opacity:1"
         inkscape:export-filename="/home/steciuk/Coding/state-viz/extension/src/assets/icons/enabled-512.png"
         inkscape:export-xdpi="384"
         inkscape:export-ydpi="384" />
      <path
         d="m 34.22,41.88 a 3.48,3.48 0 0 1 0.18,1.12 1.21,1.21 0 0 1 0,0.19 3.31,3.31 0 0 1 -0.61,1.8 A 2.24,2.24 0 0 1 32,46 2.31,2.31 0 0 1 30,44.74 3.4,3.4 0 0 1 29.6,43 a 1.27,1.27 0 0 1 0,-0.2 3.13,3.13 0 0 1 0.17,-0.93 3.2,3.2 0 0 1 0.16,-0.39 3,3 0 0 1 0.41,-0.63 A 2.16,2.16 0 0 1 32,40 a 2.28,2.28 0 0 1 1.91,1.17 l 0.15,0.28 c 0.06,0.17 0.11,0.3 0.16,0.43 z"
         id="path11"
         style="fill:#595bff;fill-opacity:1"
         inkscape:export-filename="/home/steciuk/Coding/state-viz/extension/src/assets/icons/enabled-512.png"
         inkscape:export-xdpi="384"
         inkscape:export-ydpi="384" />
      <path
         d="m 48.72,38.28 -0.06,-0.94 -0.27,0.2 A 15.78,15.78 0 0 1 45.24,39.26 24.73,24.73 0 0 1 37.68,41 l -1.15,0.07 a 5.44,5.44 0 0 0 -1.88,-2.64 v 0 A 4.4,4.4 0 0 0 32,37.57 v 0 a 4.39,4.39 0 0 0 -1.92,0.44 4.82,4.82 0 0 0 -1.71,1.39 5.22,5.22 0 0 0 -0.55,0.86 L 26.68,40 A 46.29,46.29 0 0 1 21.11,38.22 12.89,12.89 0 0 1 17.74,36.46 9.23,9.23 0 0 1 16.23,34.91 L 15.84,34.4 A 33.43,33.43 0 0 0 15.23,40 c 0.89,0.51 1.8,1 2.72,1.42 l 0.92,0.42 a 39.7,39.7 0 0 0 7.28,2.37 l 1.18,0.25 a 5.69,5.69 0 0 0 1,2.19 5.38,5.38 0 0 0 0.78,0.8 4.48,4.48 0 0 0 2.85,1 v 0 a 4.49,4.49 0 0 0 2.31,-0.66 v 0 a 5.07,5.07 0 0 0 1.32,-1.18 5.64,5.64 0 0 0 0.83,-1.5 l 1.2,-0.07 a 38,38 0 0 0 7.42,-1.24 5.26,5.26 0 0 0 2.96,-1.56 2.87,2.87 0 0 0 0.28,-0.43 2.6,2.6 0 0 0 0.19,-0.42 7.7,7.7 0 0 0 0.25,-3.11 z m -13.43,5 A 4.88,4.88 0 0 1 34.83,45.19 3.25,3.25 0 0 1 32,47.19 3.37,3.37 0 0 1 29,44.74 4.93,4.93 0 0 1 28.7,43 c 0,-0.1 0,-0.2 0,-0.3 a 5.13,5.13 0 0 1 0.13,-0.9 c 0,-0.15 0.08,-0.28 0.12,-0.42 a 4.39,4.39 0 0 1 0.38,-0.82 3.13,3.13 0 0 1 2.67,-1.69 3.27,3.27 0 0 1 2.93,2.25 c 0,0.09 0.08,0.18 0.11,0.27 0.03,0.09 0.08,0.27 0.12,0.42 A 5.19,5.19 0 0 1 35.3,43 1.69,1.69 0 0 1 35.29,43.24 Z"
         id="path13"
         style="fill:#00001a;fill-opacity:1" />
      <path
         d="m 39.87,27.6 8,1.61 c 0,-0.27 0,-0.54 -0.05,-0.81 -0.15,-2.23 -0.22,-4.69 1.1,-6.46 L 39.68,20.62 50.47,20 a 4.7,4.7 0 0 0 0.32,-1.79 c 0,-2 -0.53,-4.14 -0.07,-6 l -6.93,-3 7.52,1.51 c 0.47,-0.76 1.14,-1.4 1.57,-2.19 A 2.24,2.24 0 0 0 52.71,5.8 2.89,2.89 0 0 0 51,5.31 a 27.64,27.64 0 0 0 -9.08,0.5 11,11 0 0 0 -7.1,5.32 c -1.2,2.41 -1.25,5.41 -3.07,7.39 -1.29,1.43 -3.27,2.07 -5,3 l 7.15,8.27 -9.06,-7 a 4.81,4.81 0 0 0 -0.81,1 c -1,1.66 -0.85,3.88 -2,5.44 -0.85,1.14 -2.25,1.72 -3.38,2.6 a 7.76,7.76 0 0 0 -0.84,0.78 L 18,32.88 a 7.35,7.35 0 0 0 1.39,1.53 10.66,10.66 0 0 0 2.69,1.37 41.78,41.78 0 0 0 6.27,1.91 5.48,5.48 0 0 1 3.65,-1.46 v 0 a 5.65,5.65 0 0 1 4.4,2.2 v 0 a 22.66,22.66 0 0 0 7.82,-1.63 12.63,12.63 0 0 0 2.82,-1.57 l 1.13,-0.88 C 48.11,33.26 48,32.14 48,31 Z"
         id="path15"
         style="fill:#595bff;fill-opacity:1"
         inkscape:export-filename="/home/steciuk/Coding/state-viz/extension/src/assets/icons/enabled-512.png"
         inkscape:export-xdpi="384"
         inkscape:export-ydpi="384" />
    </g>
  </g>
  <g
     inkscape:label="disabled"
     inkscape:groupmode="layer"
     id="g1824"
     style="display:none">
    <g
       id="g1822"
       transform="matrix(0.51570702,0,0,0.58839386,0.43586593,-1.8870928)">
      <path
         d="m 63.87,45.64 a 4.12,4.12 0 0 0 -4,-4.25 h -8.65 c 0,0.14 -0.06,0.28 -0.1,0.42 a 6,6 0 0 1 -1,2.06 8,8 0 0 1 -4.31,2.49 41.38,41.38 0 0 1 -9.56,1.42 5.64,5.64 0 0 1 -4.22,2 v 0 A 5.73,5.73 0 0 1 27.31,47.1 42,42 0 0 1 13.95,42.24 l -0.8,-0.45 -0.6,-0.35 V 41.37 H 4.11 a 4.12,4.12 0 0 0 -4,4.25 1.09,1.09 0 0 0 0,0.18 1.93,1.93 0 0 0 0,0.24 c 0.02,4.28 11.95,12.79 31.89,12.79 19.94,0 31.87,-8.49 31.87,-12.77 a 1.93,1.93 0 0 0 0,-0.24 1.09,1.09 0 0 0 0,-0.18 z"
         id="path1814"
         style="fill:#e50000;fill-opacity:1" />
      <path
         d="m 34.22,41.88 a 3.48,3.48 0 0 1 0.18,1.12 1.21,1.21 0 0 1 0,0.19 3.31,3.31 0 0 1 -0.61,1.8 A 2.24,2.24 0 0 1 32,46 2.31,2.31 0 0 1 30,44.74 3.4,3.4 0 0 1 29.6,43 a 1.27,1.27 0 0 1 0,-0.2 3.13,3.13 0 0 1 0.17,-0.93 3.2,3.2 0 0 1 0.16,-0.39 3,3 0 0 1 0.41,-0.63 A 2.16,2.16 0 0 1 32,40 a 2.28,2.28 0 0 1 1.91,1.17 l 0.15,0.28 c 0.06,0.17 0.11,0.3 0.16,0.43 z"
         id="path1816"
         style="fill:#e50000;fill-opacity:1" />
      <path
         d="m 48.72,38.28 -0.06,-0.94 -0.27,0.2 A 15.78,15.78 0 0 1 45.24,39.26 24.73,24.73 0 0 1 37.68,41 l -1.15,0.07 a 5.44,5.44 0 0 0 -1.88,-2.64 v 0 A 4.4,4.4 0 0 0 32,37.57 v 0 a 4.39,4.39 0 0 0 -1.92,0.44 4.82,4.82 0 0 0 -1.71,1.39 5.22,5.22 0 0 0 -0.55,0.86 L 26.68,40 A 46.29,46.29 0 0 1 21.11,38.22 12.89,12.89 0 0 1 17.74,36.46 9.23,9.23 0 0 1 16.23,34.91 L 15.84,34.4 A 33.43,33.43 0 0 0 15.23,40 c 0.89,0.51 1.8,1 2.72,1.42 l 0.92,0.42 a 39.7,39.7 0 0 0 7.28,2.37 l 1.18,0.25 a 5.69,5.69 0 0 0 1,2.19 5.38,5.38 0 0 0 0.78,0.8 4.48,4.48 0 0 0 2.85,1 v 0 a 4.49,4.49 0 0 0 2.31,-0.66 v 0 a 5.07,5.07 0 0 0 1.32,-1.18 5.64,5.64 0 0 0 0.83,-1.5 l 1.2,-0.07 a 38,38 0 0 0 7.42,-1.24 5.26,5.26 0 0 0 2.96,-1.56 2.87,2.87 0 0 0 0.28,-0.43 2.6,2.6 0 0 0 0.19,-0.42 7.7,7.7 0 0 0 0.25,-3.11 z m -13.43,5 A 4.88,4.88 0 0 1 34.83,45.19 3.25,3.25 0 0 1 32,47.19 3.37,3.37 0 0 1 29,44.74 4.93,4.93 0 0 1 28.7,43 c 0,-0.1 0,-0.2 0,-0.3 a 5.13,5.13 0 0 1 0.13,-0.9 c 0,-0.15 0.08,-0.28 0.12,-0.42 a 4.39,4.39 0 0 1 0.38,-0.82 3.13,3.13 0 0 1 2.67,-1.69 3.27,3.27 0 0 1 2.93,2.25 c 0,0.09 0.08,0.18 0.11,0.27 0.03,0.09 0.08,0.27 0.12,0.42 A 5.19,5.19 0 0 1 35.3,43 1.69,1.69 0 0 1 35.29,43.24 Z"
         id="path1818"
         style="fill:#00001a;fill-opacity:1" />
      <path
         d="m 39.87,27.6 8,1.61 c 0,-0.27 0,-0.54 -0.05,-0.81 -0.15,-2.23 -0.22,-4.69 1.1,-6.46 L 39.68,20.62 50.47,20 a 4.7,4.7 0 0 0 0.32,-1.79 c 0,-2 -0.53,-4.14 -0.07,-6 l -6.93,-3 7.52,1.51 c 0.47,-0.76 1.14,-1.4 1.57,-2.19 A 2.24,2.24 0 0 0 52.71,5.8 2.89,2.89 0 0 0 51,5.31 a 27.64,27.64 0 0 0 -9.08,0.5 11,11 0 0 0 -7.1,5.32 c -1.2,2.41 -1.25,5.41 -3.07,7.39 -1.29,1.43 -3.27,2.07 -5,3 l 7.15,8.27 -9.06,-7 a 4.81,4.81 0 0 0 -0.81,1 c -1,1.66 -0.85,3.88 -2,5.44 -0.85,1.14 -2.25,1.72 -3.38,2.6 a 7.76,7.76 0 0 0 -0.84,0.78 L 18,32.88 a 7.35,7.35 0 0 0 1.39,1.53 10.66,10.66 0 0 0 2.69,1.37 41.78,41.78 0 0 0 6.27,1.91 5.48,5.48 0 0 1 3.65,-1.46 v 0 a 5.65,5.65 0 0 1 4.4,2.2 v 0 a 22.66,22.66 0 0 0 7.82,-1.63 12.63,12.63 0 0 0 2.82,-1.57 l 1.13,-0.88 C 48.11,33.26 48,32.14 48,31 Z"
         id="path1820"
         style="fill:#e50000;fill-opacity:1" />
    </g>
  </g>
</svg>
